<?xml version="1.0" standalone="no"?>
<!DOCTYPE svg PUBLIC "-//W3C//DTD SVG 20010904//EN"
 "http://www.w3.org/TR/2001/REC-SVG-20010904/DTD/svg10.dtd">
<svg version="1.0" xmlns="http://www.w3.org/2000/svg"
 width="707.000000pt" height="707.000000pt" viewBox="0 0 707.000000 707.000000"
 preserveAspectRatio="xMidYMid meet">
<metadata>
Created by potrace 1.11, written by Peter Selinger 2001-2013
</metadata>
<g transform="translate(0.000000,707.000000) scale(0.100000,-0.100000)"
fill="#000000" stroke="none">
<path d="M4364 6758 c-11 -18 -290 -580 -441 -888 -74 -151 -141 -283 -150
-292 -14 -16 29 -39 592 -320 585 -292 607 -302 621 -283 8 11 12 25 9 33 -2
7 -1 11 4 8 11 -7 23 22 15 35 -3 5 0 8 8 7 8 -2 13 6 12 19 0 12 4 21 10 20
6 -1 10 6 9 16 0 10 1 16 5 13 8 -9 33 45 25 57 -3 5 -1 7 4 4 13 -8 26 20 16
35 -3 6 -2 8 4 5 12 -8 46 61 37 75 -4 6 -3 8 3 5 12 -7 36 40 27 54 -3 5 0 8
8 7 7 -2 13 4 13 12 0 8 3 17 6 20 17 13 98 183 93 192 -4 6 -3 8 3 5 13 -8
36 41 27 55 -5 7 -2 8 6 3 10 -6 12 -4 7 9 -4 10 -3 15 3 11 12 -7 42 63 33
78 -3 6 -1 7 6 3 12 -8 32 33 23 49 -3 6 -1 6 3 2 11 -10 47 62 38 76 -3 5 -1
7 4 4 13 -8 26 20 16 35 -3 6 -2 8 4 5 12 -8 46 61 37 75 -4 6 -3 8 3 5 14 -9
37 38 28 55 -5 7 -5 10 0 6 11 -11 38 29 29 44 -4 6 -3 8 3 5 6 -4 14 0 17 9
15 40 6 52 -66 87 -40 19 -244 119 -453 222 -425 210 -639 313 -672 326 -15 5
-25 4 -29 -3z m345 -982 c12 -37 20 -70 17 -73 -2 -3 -14 28 -26 69 -12 40
-25 78 -28 83 -3 7 -2 7 5 0 6 -5 20 -41 32 -79z m40 -131 c0 -5 -4 -3 -9 5
-5 8 -9 22 -9 30 0 16 17 -16 18 -35z m40 -120 c0 -5 -4 -3 -9 5 -5 8 -9 22
-9 30 0 16 17 -16 18 -35z"/>
<path d="M765 5327 c-347 -704 -455 -920 -465 -932 -10 -12 83 -61 512 -277
287 -144 530 -265 538 -268 8 -3 39 -18 68 -33 29 -15 58 -25 64 -21 7 4 8 3
4 -4 -4 -7 -1 -12 8 -12 19 0 40 36 30 52 -4 6 -3 8 3 5 13 -8 36 41 27 55 -5
7 -2 8 6 3 10 -6 12 -4 7 9 -4 9 -3 15 2 12 11 -7 23 22 14 36 -3 6 -2 8 4 5
13 -8 66 100 57 115 -4 6 -3 8 3 5 6 -4 41 54 83 136 40 78 97 188 126 245 30
57 51 108 48 114 -4 6 -3 8 3 5 6 -4 17 8 24 26 7 17 26 54 41 80 16 27 26 53
23 58 -4 5 -2 9 4 9 15 0 43 58 35 73 -4 7 -4 9 1 5 11 -10 47 60 39 74 -5 7
-2 8 6 3 10 -6 12 -4 7 9 -4 9 -3 15 2 12 9 -6 31 36 31 58 0 7 -120 71 -267
144 -148 72 -414 202 -593 290 -179 88 -334 162 -345 166 -18 5 -35 -24 -150
-257z m471 -744 c-5 -5 -36 86 -35 101 0 6 9 -13 20 -43 10 -30 17 -56 15 -58z
m32 -93 c0 -8 -6 1 -13 20 -7 19 -13 42 -13 50 0 8 6 -1 13 -20 7 -19 13 -42
13 -50z"/>
<path d="M3900 5286 c-229 -66 -399 -238 -471 -476 -27 -89 -32 -251 -10 -340
18 -71 60 -166 102 -226 l32 -47 -74 -149 c-41 -83 -78 -152 -82 -155 -5 -3
-67 23 -138 58 l-129 64 -1 50 c0 28 -2 57 -4 65 -2 8 -6 33 -10 55 -18 104
-72 216 -145 298 -59 67 -82 88 -150 131 -124 81 -246 118 -385 119 -292 0
-542 -186 -641 -478 -34 -100 -42 -254 -18 -355 55 -242 249 -436 504 -508 69
-20 277 -31 267 -15 -3 5 7 7 24 5 17 -2 29 0 29 7 0 6 6 8 14 5 20 -8 167 55
159 68 -3 7 -1 8 5 4 13 -8 104 53 97 64 -11 19 40 0 148 -53 65 -33 121 -65
123 -72 7 -17 -123 -275 -139 -275 -105 -2 -235 -37 -327 -87 -102 -56 -217
-178 -273 -290 -62 -124 -81 -216 -74 -352 10 -200 98 -369 257 -493 78 -60
218 -127 239 -113 6 3 11 2 11 -3 0 -5 22 -14 50 -19 63 -13 214 -17 207 -6
-3 4 18 9 47 9 55 2 172 45 159 59 -5 4 -2 5 5 1 16 -10 114 52 105 67 -3 5
-1 7 5 3 31 -19 227 232 206 265 -4 8 -3 9 4 5 14 -8 56 126 49 154 -3 11 -1
18 4 14 5 -3 9 10 10 28 0 18 2 52 4 75 1 24 0 41 -4 39 -3 -2 -5 17 -5 42 2
47 -35 173 -70 239 -9 18 -36 57 -60 86 -29 36 -44 63 -43 80 1 14 4 23 6 21
8 -8 72 127 65 138 -4 6 -3 8 3 5 5 -3 17 9 26 28 9 19 21 35 27 35 6 0 77
-33 159 -74 l148 -75 6 -63 c25 -258 220 -484 491 -570 66 -21 303 -38 292
-20 -3 5 5 7 19 4 14 -2 33 -1 42 4 21 9 19 8 61 18 19 4 29 12 26 18 -4 7 -2
8 4 4 27 -17 231 122 216 146 -4 6 -3 8 3 5 13 -8 55 41 47 55 -4 6 -3 8 3 5
14 -9 67 69 57 84 -4 8 -3 10 4 5 14 -8 46 50 38 70 -3 8 -2 13 3 10 4 -3 18
28 30 69 27 88 32 240 11 324 -49 203 -178 365 -365 457 -257 128 -542 95
-747 -85 l-47 -42 -125 63 c-117 58 -152 87 -124 104 5 3 7 13 4 21 -4 9 -2
11 6 7 8 -5 9 -2 5 10 -4 9 -3 15 2 12 11 -7 33 43 25 56 -5 7 -2 8 6 3 10 -6
12 -4 7 9 -4 9 -3 15 2 12 11 -7 23 22 14 36 -3 6 -2 8 4 5 11 -7 36 40 28 53
-3 4 2 11 11 14 9 3 14 12 11 20 -4 10 3 13 26 11 18 -2 37 1 44 6 7 6 13 6
17 1 9 -15 100 -3 191 24 34 9 53 20 49 26 -4 6 -2 8 4 5 15 -10 43 3 35 16
-3 5 -1 7 5 4 13 -9 44 2 37 13 -3 4 3 7 13 6 9 0 16 4 15 10 -1 7 5 11 15 10
9 0 16 5 14 12 -1 8 2 11 8 7 14 -9 123 102 114 116 -4 7 -3 9 3 6 11 -7 46
39 46 60 0 7 3 10 7 8 9 -6 69 118 73 148 1 12 4 24 8 27 3 3 10 27 16 55 9
38 8 54 0 64 -9 12 -9 13 1 7 9 -5 12 9 12 63 0 46 -4 71 -12 74 -8 3 -9 6 -2
6 8 1 8 16 -2 54 -36 148 -76 219 -184 328 -72 73 -101 94 -181 133 -163 79
-334 97 -489 52z"/>
<path d="M5264 2716 l-299 -604 596 -298 c578 -288 643 -316 625 -268 -3 8 -2
13 3 10 11 -7 23 22 14 36 -3 7 -1 8 5 4 14 -8 36 40 26 56 -4 6 -3 8 3 5 5
-3 19 12 31 34 25 47 27 53 10 43 -7 -4 -8 -3 -4 5 4 6 11 9 15 7 11 -7 43 63
35 76 -4 6 -3 8 3 5 5 -3 25 24 44 61 44 87 44 86 29 77 -9 -5 -11 -4 -6 4 4
6 11 9 16 6 11 -7 22 24 13 38 -3 7 -2 8 2 4 11 -10 47 62 38 76 -3 5 -2 7 4
4 10 -6 50 70 46 85 -2 5 1 8 6 8 15 0 113 199 105 213 -4 6 -3 9 1 4 10 -9
57 71 49 84 -3 5 -1 9 5 9 13 0 42 60 34 73 -3 5 -1 7 4 4 13 -8 26 20 16 35
-4 7 -1 8 7 3 10 -6 12 -4 6 11 -4 10 -4 15 0 11 5 -4 16 9 26 30 14 29 15 39
6 45 -10 6 -10 8 0 8 27 0 9 17 -50 44 -35 17 -250 122 -478 234 -519 256
-658 322 -674 322 -7 0 -147 -272 -312 -604z m646 -391 c17 -49 30 -94 29 -99
0 -6 -13 26 -29 72 -38 110 -44 128 -36 121 3 -3 20 -46 36 -94z m50 -155 c0
-5 -5 -10 -11 -10 -5 0 -7 5 -4 10 3 6 8 10 11 10 2 0 4 -4 4 -10z m77 -252
c-3 -8 -6 -5 -6 6 -1 11 2 17 5 13 3 -3 4 -12 1 -19z"/>
<path d="M1909 1683 c-110 -225 -242 -491 -292 -593 -50 -102 -96 -188 -101
-192 -6 -4 -8 -9 -6 -11 27 -21 1197 -597 1209 -595 9 2 16 13 15 25 0 12 3
20 6 18 10 -6 71 116 63 128 -3 5 -2 7 4 4 12 -8 46 61 37 75 -4 6 -3 8 3 5
13 -8 36 41 27 55 -4 6 -3 8 3 5 12 -8 55 71 46 85 -3 6 -1 8 4 5 13 -8 26 20
16 36 -3 7 -2 9 2 4 11 -9 98 160 90 174 -4 5 -1 8 7 7 7 -2 12 5 12 15 -1 10
0 16 4 13 8 -9 33 45 25 57 -3 5 -2 7 4 4 13 -8 36 41 27 55 -4 6 -2 8 3 5 13
-8 26 20 16 35 -3 6 -2 9 3 5 10 -6 110 180 108 200 -1 7 2 11 6 8 11 -7 22
24 13 38 -3 7 -2 8 2 4 9 -8 64 92 71 129 3 17 -11 27 -89 64 -50 24 -297 145
-547 268 -527 260 -554 272 -574 272 -11 0 -81 -132 -217 -407z m541 -559 c12
-36 20 -67 17 -70 -2 -2 -12 22 -22 53 -10 32 -20 64 -23 71 -2 6 -2 12 1 12
3 0 15 -30 27 -66z m50 -158 c-1 -6 -7 4 -15 23 -8 18 -15 38 -15 45 1 6 7 -4
15 -23 8 -18 15 -38 15 -45z m23 -66 c3 -11 1 -18 -4 -14 -5 3 -9 12 -9 20 0
20 7 17 13 -6z"/>
</g>
</svg>
